<?xml version="1.0"?>
<svg xmlns="http://www.w3.org/2000/svg" height="24px" viewBox="0 -960 960 960" width="24px" fill="#1f1f1f">
    <path d="M446.69-120q-32.61 0-62.11-13.54t-48.81-39.38L146.23-423.77l10.54-11.54q10-11 23.77-13.46 13.77-2.46 26.23 4.85l120.92 59.61v-304.92q0-8.5 5.76-14.25t14.27-5.75q8.51 0 14.36 5.75 5.84 5.75 5.84 14.25v372.77l-143.15-70.77L370.31-195q13.69 17.77 34 26.38 20.31 8.62 42.38 8.62h172.54q42.23 0 71.5-28.88Q720-217.77 720-260v-141.54q0-24.19-16.37-40.56-16.36-16.36-40.55-16.36H478.69v-40h184.39q40.38 0 68.65 28.27Q760-441.92 760-401.54v141.49q0 58.36-41.35 99.2Q677.3-120 619.23-120H446.69Z"/>
    <line x1="60" y1="-900" x2="900" y2="60" stroke="black" stroke-width="40"/>
</svg>
